<svg width="800" height="230" viewBox="0 0 800 230" fill="none" xmlns="http://www.w3.org/2000/svg">
<path d="M412.141 65.8867C423.877 65.8867 434.399 67.8088 443.707 71.6533C453.015 75.2956 460.908 80.5566 467.383 87.4365C473.858 94.3163 478.815 102.714 482.255 112.629C485.897 122.342 487.719 133.269 487.719 145.41V158.765H380.574V161.497C380.574 171.614 383.711 179.809 389.983 186.082C396.256 192.153 405.463 195.188 417.604 195.188C426.913 195.187 434.906 193.468 441.583 190.028C448.26 186.386 454.027 181.631 458.884 175.763L483.166 202.169C477.096 209.656 468.597 216.131 457.67 221.595C446.743 227.058 432.882 229.79 416.087 229.79C389.781 229.79 369.849 222.505 356.292 207.936C342.735 193.366 335.956 173.536 335.956 148.445C335.956 135.697 337.676 124.264 341.116 114.146C344.758 103.827 349.817 95.1261 356.292 88.0439C362.969 80.7594 370.963 75.2956 380.271 71.6533C389.781 67.8087 400.404 65.8867 412.141 65.8867ZM570.103 65.8867C587.302 65.8867 601.062 69.4276 611.382 76.5098C621.904 83.3897 629.897 92.5969 635.36 104.131L600.759 122.949C597.926 116.879 594.182 111.819 589.528 107.772C585.077 103.725 578.601 101.702 570.103 101.702C559.783 101.702 551.79 104.737 546.124 110.808C540.661 116.676 537.929 124.77 537.929 135.09V160.586C537.929 170.906 540.661 179.101 546.124 185.172C551.79 191.04 559.985 193.974 570.71 193.974C579.411 193.974 586.19 191.95 591.046 187.903C596.105 183.856 600.354 178.595 603.794 172.12L637.789 191.546C632.123 203.08 623.826 212.387 612.899 219.47C602.175 226.35 588.011 229.79 570.406 229.79C558.063 229.79 546.934 227.968 537.019 224.326C527.306 220.482 519.009 215.018 512.129 207.936C505.452 200.853 500.292 192.254 496.649 182.137C493.007 172.019 491.187 160.586 491.187 147.838C491.187 135.09 493.007 123.657 496.649 113.54C500.292 103.423 505.451 94.8224 512.129 87.7402C519.009 80.658 527.306 75.2956 537.019 71.6533C546.934 67.8087 557.962 65.8867 570.103 65.8867ZM73.1494 47.5625L88.6289 81.5566H91.0576L106.841 47.5625L125.052 13.8711H172.705L117.16 116.766L176.651 225.731H124.749L102.895 183.541L88.0225 150.153H85.29L70.1143 183.541L47.6533 225.731H0L59.4912 116.159L3.94531 13.8711H55.8486L73.1494 47.5625ZM248.412 13.8711C276.943 13.8711 298.089 22.977 311.849 41.1885C325.608 59.3999 332.488 85.6039 332.488 119.801C332.488 153.998 325.608 180.203 311.849 198.414C298.089 216.625 276.943 225.731 248.412 225.731H180.119V13.8711H248.412ZM686.178 127.48H688.303L709.246 102.896L742.026 67.9902H793.626L732.921 129.909L800 224.608H746.579L701.051 155.405L686.178 170.277V224.608H641.257V0H686.178V127.48ZM225.041 189.915H245.377C258.934 189.915 268.849 185.565 275.122 176.864C281.395 168.163 284.531 155.516 284.531 138.923V100.376C284.531 83.9856 281.395 71.4393 275.122 62.7383C268.849 54.0374 258.934 49.6865 245.377 49.6865H225.041V189.915ZM412.444 98.0596C402.732 98.0596 394.941 101.096 389.073 107.166C383.407 113.034 380.574 121.027 380.574 131.145V133.572H443.707V131.145C443.707 120.825 440.875 112.73 435.209 106.862C429.746 100.994 422.157 98.0596 412.444 98.0596Z" fill="url(#paint0_linear_2_34)"/>
<defs>
<linearGradient id="paint0_linear_2_34" x1="400" y1="0" x2="400" y2="229.79" gradientUnits="userSpaceOnUse">
<stop stop-color="#C50000"/>
<stop offset="1" stop-color="#FF8C19"/>
</linearGradient>
</defs>
</svg>
